<?xml version="1.0" encoding="utf-8"?>
<!-- Generator: Adobe Illustrator 17.1.0, SVG Export Plug-In . SVG Version: 6.00 Build 0)  -->
<!DOCTYPE svg PUBLIC "-//W3C//DTD SVG 1.1//EN" "http://www.w3.org/Graphics/SVG/1.1/DTD/svg11.dtd">
<svg version="1.1" id="Calque_1" xmlns="http://www.w3.org/2000/svg" xmlns:xlink="http://www.w3.org/1999/xlink" x="0px" y="0px"
	 width="100px" height="100px" viewBox="0 0 100 100" enable-background="new 0 0 100 100" xml:space="preserve">
<circle fill="#F58536" cx="50" cy="50" r="18"/>
<g>
	<polygon fill="#FFFFFF" points="41.1,44.2 46.9,49.8 41.1,55.4 41.1,52.6 36.2,52.6 36.2,47 41.1,47 	"/>
	<polygon fill="#FFFFFF" points="58.9,44.2 58.9,47 63.8,47 63.8,52.6 58.9,52.6 58.9,55.4 53.1,49.8 	"/>
	<polygon fill="#FFFFFF" points="50,37.3 55.6,43 53.5,43 53.5,46.8 50.7,49.8 53.5,52.8 53.5,57 55.6,57 49.9,62.7 44.3,57 
		46.4,57 46.4,52.9 49.4,49.8 46.4,46.7 46.4,43 44.3,43 	"/>
</g>
</svg>
