<?xml version="1.0" encoding="utf-8"?>
<!-- Generator: Adobe Illustrator 17.1.0, SVG Export Plug-In . SVG Version: 6.00 Build 0)  -->
<!DOCTYPE svg PUBLIC "-//W3C//DTD SVG 1.1//EN" "http://www.w3.org/Graphics/SVG/1.1/DTD/svg11.dtd">
<svg version="1.1" id="Calque_2" xmlns="http://www.w3.org/2000/svg" xmlns:xlink="http://www.w3.org/1999/xlink" x="0px" y="0px"
	 width="458.7px" height="108.7px" viewBox="0 0 458.7 108.7" enable-background="new 0 0 458.7 108.7" xml:space="preserve">
<g>
	<path fill="#4FC6C6" d="M115.1,45.2c0.1-0.6,0.1-1.5,0.1-2.1c0-12.1-9.8-21.9-21.8-21.9c-4.4,0-8.4,1.2-11.8,3.5
		c-5-11-16.6-18.5-29.7-17.4c-14.5,1.2-26.1,13-27.2,27.4c-0.2,3.3,0.1,6.5,0.8,9.5c-11.1,1-19.9,11-19.9,22.4
		c0,12.1,9.8,22.5,21.8,22.5H32c1.6,0,3.2-0.8,4.1-2.1l23.4-33.4c4.3-6.1,13.3-6.1,17.6,0l23.4,33.4c0.9,1.3,2.5,2.1,4.1,2.1h3.5
		c11,0,20.8-7.7,22.7-18.6C132.9,58.9,125.5,48,115.1,45.2z"/>
	<path fill="#4FC6C6" d="M40.4,101.6h55.9c2.4,0,3.8-2.7,2.5-4.7L72.1,58.8c-1.8-2.6-5.7-2.6-7.5,0L37.9,96.9
		C36.6,98.9,38,101.6,40.4,101.6z"/>
</g>
<g>
	<path fill="#4FC6C6" d="M165.4,70.2c2.5,0,4.7-0.4,6.5-1.3c1.8-0.8,3.7-2.2,5.7-4l4.7,4.8c-4.6,5-10.1,7.6-16.6,7.6
		c-6.5,0-11.9-2.1-16.2-6.3c-4.3-4.2-6.4-9.5-6.4-15.9c0-6.4,2.2-11.7,6.6-16c4.4-4.3,9.9-6.4,16.6-6.4s12.2,2.5,16.7,7.4l-4.6,5
		c-2.1-2-4-3.3-5.8-4.1c-1.8-0.8-4-1.2-6.4-1.2c-4.4,0-8,1.4-11,4.2c-3,2.8-4.4,6.4-4.4,10.8c0,4.4,1.5,8,4.4,11
		C157.9,68.8,161.4,70.2,165.4,70.2z"/>
	<path fill="#4FC6C6" d="M188,76.8v-43h7.3v36.1h19.6v6.9H188z"/>
	<path fill="#4FC6C6" d="M254.6,70.9c-4.4,4.2-9.7,6.4-16.1,6.4c-6.4,0-11.8-2.1-16.1-6.4s-6.5-9.5-6.5-15.9
		c0-6.3,2.2-11.6,6.5-15.9c4.3-4.2,9.7-6.4,16.1-6.4c6.4,0,11.8,2.1,16.1,6.4c4.3,4.2,6.5,9.5,6.5,15.9
		C261.1,61.3,258.9,66.6,254.6,70.9z M249.2,43.9c-2.9-3-6.5-4.6-10.8-4.6s-7.9,1.5-10.8,4.6c-2.9,3-4.4,6.7-4.4,11
		c0,4.3,1.5,8,4.4,11c2.9,3,6.5,4.6,10.8,4.6s7.9-1.5,10.8-4.6c2.9-3,4.4-6.7,4.4-11C253.6,50.7,252.2,47,249.2,43.9z"/>
	<path fill="#4FC6C6" d="M276.8,67c2,2.3,4.6,3.4,8,3.4s6-1.1,8-3.4s3-5.4,3-9.4V33.8h7.3v24.1c0,6.2-1.7,11-5.1,14.3
		c-3.4,3.3-7.8,5-13.1,5s-9.7-1.7-13.1-5c-3.4-3.3-5.1-8.1-5.1-14.3V33.8h7.3v23.8C273.9,61.5,274.9,64.7,276.8,67z"/>
	<path fill="#4FC6C6" d="M343.9,39.4c4.1,3.8,6.2,9,6.2,15.7c0,6.7-2,12-6,15.9c-4,3.9-10.2,5.8-18.5,5.8h-14.3v-43h14.8
		C333.9,33.8,339.8,35.7,343.9,39.4z M342.8,55.3c0-9.8-5.6-14.8-16.9-14.8h-7.3V70h8.1c5.2,0,9.2-1.2,12-3.7
		C341.4,63.8,342.8,60.1,342.8,55.3z"/>
	<path fill="#4FC6C6" d="M391.5,37.6c3,2.6,4.5,6.5,4.5,11.8c0,5.3-1.5,9.2-4.6,11.7c-3.1,2.5-7.8,3.7-14.2,3.7h-5.7v12h-9.6v-43
		h15.2C383.7,33.8,388.5,35.1,391.5,37.6z M384.5,54.6c1.1-1.3,1.7-3.2,1.7-5.7c0-2.5-0.7-4.2-2.2-5.3c-1.5-1-3.8-1.6-7-1.6h-5.5
		v14.5h6.5C381.2,56.5,383.3,55.9,384.5,54.6z"/>
	<path fill="#4FC6C6" d="M400.5,33.8h9.6v43h-9.6V33.8z"/>
	<path fill="#4FC6C6" d="M448.6,33.8v8.6h-21.4v8.9h19.3v8.2h-19.3v8.9h22.1v8.5h-31.7v-43H448.6z"/>
</g>
</svg>
