<?xml version="1.0" encoding="utf-8"?>
<!-- Generator: Adobe Illustrator 17.1.0, SVG Export Plug-In . SVG Version: 6.00 Build 0)  -->
<!DOCTYPE svg PUBLIC "-//W3C//DTD SVG 1.1//EN" "http://www.w3.org/Graphics/SVG/1.1/DTD/svg11.dtd">
<svg version="1.1" id="Calque_1" xmlns="http://www.w3.org/2000/svg" xmlns:xlink="http://www.w3.org/1999/xlink" x="0px" y="0px"
	 width="100px" height="100px" viewBox="0 0 100 100" enable-background="new 0 0 100 100" xml:space="preserve">
<path fill="#F58536" d="M50.6,30.9c10.6,0.3,19,9.1,18.7,19.7c-0.3,10.5-9.2,18.8-19.8,18.5c-10.6-0.3-19-9.1-18.7-19.7
	C31.1,38.9,39.9,30.6,50.6,30.9z"/>
<path fill="#FFFFFF" d="M61.7,44H56v-1.1l-1.8,2.2l-0.8-1.2L45.3,49h6.8v-1.2l3.8,1.4v-2.1h5.7v5.7H56v-2.1l-3.8,1.4V51h-6.8
	l8.1,5.1l0.7-1.2l1.8,2.3V56h5.7v5.7H56v-2.3l-4-1l0.5-1.1l-9.9-6.4v3.8h-6.4v-9.5h6.4v3.8l10-6.4L52,41.5l4-1v-2.3h5.7V44z"/>
</svg>
