<?xml version="1.0" encoding="utf-8"?>
<!-- Generator: Adobe Illustrator 17.1.0, SVG Export Plug-In . SVG Version: 6.00 Build 0)  -->
<!DOCTYPE svg PUBLIC "-//W3C//DTD SVG 1.1//EN" "http://www.w3.org/Graphics/SVG/1.1/DTD/svg11.dtd">
<svg version="1.1" id="Calque_1" xmlns="http://www.w3.org/2000/svg" xmlns:xlink="http://www.w3.org/1999/xlink" x="0px" y="0px"
	 width="100px" height="100px" viewBox="0 0 100 100" enable-background="new 0 0 100 100" xml:space="preserve">
<path fill="none" stroke="#9E6036" stroke-miterlimit="10" d="M50,30.1l-8.8,4.4v2.4L38.1,36l-4.6,2.3V50l4.6,0h3.1h5.2H50h4.9v-7.5
	l3.5,0.8l0,6.8h5.9h2.1V38.3L50,30.1z"/>
<polygon fill="none" stroke="#9E6036" stroke-miterlimit="10" points="55.2,53.3 55.2,52.8 50,52.4 33.6,53.5 33.6,61.7 38.2,64 
	41.2,63.2 41.2,65.5 50,69.9 66.4,61.6 66.4,53.5 58.5,53 "/>
<polygon fill="#F58536" points="55.2,52.8 38.2,54.1 38.2,64 55.2,59.4 "/>
<polygon fill="#F58536" points="46.4,50 38.1,50 38.1,36 46.4,38.3 "/>
<polygon fill="#6B3A19" points="46.7,40.7 53.2,39 64.3,42.4 58.4,43.2 "/>
<polygon fill="#F58536" points="50,30.1 50,50 54.9,50 54.9,39.5 64.3,42.4 64.3,50 66.4,50 66.4,38.3 "/>
<polygon fill="#9D5025" points="41.2,50 50,50 50,30.1 41.2,34.5 "/>
<polygon fill="#9D5025" points="38.1,36 33.6,38.4 33.6,50 38.1,50 "/>
<polygon fill="#9D5025" points="58.4,50 64.3,50 64.3,42.4 58.4,43.2 "/>
<polygon fill="#F58536" points="66.4,53.5 50,55.9 50,69.9 66.4,61.6 "/>
<polygon fill="#9D5025" points="41.2,54.7 50,56 50,69.9 41.2,65.5 "/>
<polygon fill="#9D5025" points="33.6,53.5 38.2,54.2 38.2,64 33.6,61.7 "/>
<polygon fill="#FBBF93" points="66.4,53.5 58.5,53 41.2,54.6 49.9,55.9 "/>
<polygon fill="#FBBF93" points="55.2,52.8 50,52.4 33.6,53.5 38.2,54.2 "/>
</svg>
